<svg width="695" height="695" viewBox="0 0 695 695" fill="none" xmlns="http://www.w3.org/2000/svg">
<path d="M662.6 292.211L510.614 209.178C500.164 203.45 491.55 194.836 485.822 184.386L402.79 32.3999C379.266 -10.6687 317.483 -10.8436 293.741 32.0938L209.222 184.648C203.494 194.967 194.967 203.45 184.605 209.09L32.3999 292.211C-10.6687 315.734 -10.8436 377.517 32.0938 401.259L184.648 485.779C194.967 491.507 203.45 500.033 209.09 510.396L292.211 662.557C315.734 705.625 377.517 705.8 401.259 662.863L485.866 510.133C491.507 499.902 499.945 491.507 510.133 485.866L662.863 401.259C705.8 377.473 705.581 315.691 662.557 292.211H662.6Z" fill="#FF203A"/>
</svg>
